<?xml version="1.0" encoding="UTF-8"?>
<svg id="Camada_1" xmlns="http://www.w3.org/2000/svg" version="1.1" viewBox="0 0 46.08 46.08">
  <!-- Generator: Adobe Illustrator 30.4.0, SVG Export Plug-In . SVG Version: 2.1.4 Build 226)  -->
  <g>
    <path d="M28.54,29.41H11.02l.08-15.69c-1.06-.01-2.33-.03-3.28.57-1.49.94-3.02,2.13-3.84,3.76-1.32,2.64-1.28,5.7-.48,8.47,1.05,2.89,3.27,5.06,6.27,5.69h18.78v-2.8ZM6,20.96c0-.25-.69-.15-1.18-.09l-.03-1.48,1.25-.15c-.02-.3-.09-1.12.16-1.12h1.12c.25,0,.2.78.15,1.14l1.28.1v1.44s-1.24.05-1.24.05l-.03,1.22h-1.43s-.04-1.11-.04-1.11ZM7.86,23.53c.74,0,1.33.6,1.33,1.34s-.6,1.34-1.33,1.34-1.33-.6-1.33-1.34.6-1.34,1.33-1.34ZM7.07,15.14c.8-.55,1.54-.97,2.77-1.11-.68.89-1.52,1.44-2.77,1.11Z"/>
    <path d="M39.85,28.85l.02,1.23c1.45-1.11,2.27-2.06,2.86-3.97.61-2.38.56-4.72-.14-6.98-.89-2.88-4.74-6.2-7.95-5.39h-2.14s0,1.73,0,1.73h2.57v7.37c.26-.05.52-.08.79-.08,2.33,0,3.97,1.93,3.97,4.26l.03,1.83ZM40.06,18.36c0,.4-.32.72-.72.72s-.72-.32-.72-.72.32-.72.72-.72.72.32.72.72ZM36.41,14.01c.94.17,1.68.52,2.59,1.09-.97.34-2.03.02-2.59-1.09ZM37.7,20.78c-.4,0-.72-.32-.72-.72s.32-.72.72-.72.72.32.72.72-.32.72-.72.72ZM39.35,22.41c-.4,0-.72-.32-.72-.72s.32-.72.72-.72.72.32.72.72-.32.72-.72.72ZM41.05,20.78c-.4,0-.72-.32-.72-.72s.32-.72.72-.72.72.32.72.72-.32.72-.72.72Z"/>
  </g>
  <g>
    <path d="M30.09,26.35l-.47-.02-7.33-1.41c-.8-.15-1.28-.92-1.13-1.71l2-10.46c.19-.77.87-1.24,1.66-1.13l5.37,1.03,2.72,3.99-1.62,8.5c-.12.64-.59,1.07-1.19,1.2ZM31.97,16.83l-1.83-.35c-.55-.12-.89-.63-.8-1.18l.35-1.84-5.05-.96c-.3-.06-.57.19-.62.47l-1.99,10.43c-.06.34.16.62.47.68l7.2,1.37c.3.06.64-.07.7-.4l1.57-8.22Z"/>
    <path d="M20.56,22.79l-1.07.15c-.48.07-.93-.25-1-.75l-1.77-12.41c-.07-.51.25-.96.76-1.03l8.98-1.28c.51-.07.95.26,1.02.76l.47,3.3-2.91-.56c-1.18-.23-2.29.49-2.54,1.67l-1.93,10.14Z"/>
    <path d="M15.19,5.32c-.17,0-.26.07-.26.21l-.62,11.23c0,.12.1.2.2.2l2.51.14.16,1.12-3.2-.18c-.47-.06-.84-.43-.81-.93l.67-12.11c.03-.5.46-.85.92-.83l.57.03,8.48.47c.49.03.82.46.81.91l-.08,1.39-1.12.16.07-1.16c0-.11-.07-.2-.2-.22l-8.1-.45Z"/>
    <path d="M29.87,20.01c.26.05.34.29.31.47-.04.21-.24.34-.48.3l-5.48-1.05c-.22-.04-.33-.27-.3-.45.03-.2.22-.37.46-.32l5.49,1.05Z"/>
    <path d="M29.37,22.32c.27.05.39.23.36.46-.03.2-.23.37-.47.33l-5.48-1.05c-.23-.04-.34-.26-.31-.45.03-.21.23-.37.48-.33l5.42,1.03Z"/>
    <path d="M30.29,17.68c.25.05.36.26.32.46s-.23.36-.47.31l-5.48-1.05c-.22-.04-.34-.26-.32-.43.03-.22.22-.39.47-.35l5.47,1.04Z"/>
  </g>
  <g>
    <path d="M39.86,41.9h-4.77c-.59-.21-1.13-.57-1.54-1.09-1.55-1.96-2.23-4.34-3.59-6.64-.38-.65-.25-1.44.28-1.89.48-.4,1.36-.57,1.86-.08l1.23,1.19v-5.99c0-.86.49-1.54,1.36-1.64.71-.08,1.63.43,1.63,1.28l.03,3.43c.83-.44,1.81-.11,2.17.79.89-.5,1.89-.16,2.27.76.5-.28,1.03-.33,1.54-.06.35.19.8.63.8,1.14v4.26c.01,2.11-1.48,3.66-3.28,4.53Z"/>
    <path d="M37.11,29.53l-.03-2.5c-.01-1.21-1.15-2.06-2.28-2.03s-2.2.93-2.21,2.13l-.03,3.15c-1.86-1.38-1.92-4.06-.24-5.56,1.38-1.23,3.4-1.27,4.84-.12,1.55,1.24,1.8,3.45.59,5l-.63-.07Z"/>
  </g>
</svg>