<?xml version="1.0" encoding="UTF-8"?>
<svg id="Camada_1" xmlns="http://www.w3.org/2000/svg" version="1.1" viewBox="0 0 46.08 46.08">
  <!-- Generator: Adobe Illustrator 30.4.0, SVG Export Plug-In . SVG Version: 2.1.4 Build 226)  -->
  <defs>
    <style>
      .st0 {
        fill: #fff;
      }
    </style>
  </defs>
  <g>
    <path class="st0" d="M28.83,29.75H10.38l.08-16.54c-1.12-.01-2.45-.03-3.46.6-1.57.99-3.19,2.24-4.05,3.96-1.39,2.78-1.35,6-.51,8.93,1.1,3.04,3.44,5.33,6.6,5.99h19.78v-2.95ZM5.09,20.85c0-.26-.73-.16-1.24-.09l-.04-1.56,1.31-.15c-.02-.31-.1-1.18.17-1.18h1.18c.27,0,.21.82.16,1.2l1.35.11v1.51s-1.31.05-1.31.05l-.03,1.28h-1.51s-.04-1.17-.04-1.17ZM7.04,23.55c.78,0,1.41.63,1.41,1.41s-.63,1.41-1.41,1.41-1.41-.63-1.41-1.41.63-1.41,1.41-1.41ZM6.21,14.71c.84-.58,1.63-1.02,2.91-1.17-.72.94-1.6,1.52-2.91,1.17Z"/>
    <path class="st0" d="M40.75,29.16l.02,1.29c1.53-1.17,2.39-2.17,3.01-4.18.64-2.5.59-4.98-.14-7.35-.94-3.03-5-6.53-8.37-5.68h-2.26s0,1.83,0,1.83h2.7v7.76c.27-.05.55-.08.83-.08,2.45,0,4.18,2.04,4.18,4.49l.03,1.93ZM40.98,18.11c0,.42-.34.76-.75.76s-.75-.34-.75-.76.34-.76.75-.76.75.34.75.76ZM37.13,13.53c.99.18,1.77.54,2.73,1.15-1.03.35-2.14.02-2.73-1.15ZM38.48,20.66c-.42,0-.76-.34-.76-.76s.34-.76.76-.76.76.34.76.76-.34.76-.76.76ZM40.22,22.38c-.42,0-.76-.34-.76-.76s.34-.76.76-.76.76.34.76.76-.34.76-.76.76ZM42.01,20.66c-.42,0-.76-.34-.76-.76s.34-.76.76-.76.76.34.76.76-.34.76-.76.76Z"/>
  </g>
  <g>
    <path class="st0" d="M30.47,26.53l-.5-.02-7.72-1.48c-.84-.16-1.35-.97-1.19-1.8l2.1-11.02c.2-.81.92-1.31,1.75-1.19l5.65,1.08,2.87,4.2-1.71,8.96c-.13.67-.62,1.12-1.25,1.27ZM32.45,16.5l-1.93-.37c-.58-.12-.94-.66-.84-1.25l.37-1.94-5.32-1.01c-.31-.06-.6.2-.66.49l-2.1,10.99c-.07.35.16.65.5.71l7.58,1.45c.31.06.67-.08.74-.42l1.65-8.66Z"/>
    <path class="st0" d="M20.42,22.77l-1.13.16c-.5.07-.98-.27-1.05-.79l-1.86-13.07c-.08-.53.26-1.01.8-1.08l9.46-1.34c.54-.08,1,.28,1.07.8l.5,3.48-3.06-.59c-1.24-.24-2.41.52-2.68,1.76l-2.04,10.68Z"/>
    <path class="st0" d="M14.77,4.37c-.18,0-.27.07-.28.22l-.66,11.84c0,.12.11.21.21.21l2.64.14.17,1.18-3.37-.19c-.5-.06-.88-.45-.85-.98l.71-12.76c.03-.52.48-.9.97-.87l.61.04,8.93.5c.52.03.86.49.85.96l-.08,1.46-1.18.17.07-1.22c0-.12-.08-.21-.21-.24l-8.53-.47Z"/>
    <path class="st0" d="M30.23,19.85c.28.05.36.31.32.5-.04.22-.25.36-.5.31l-5.78-1.1c-.24-.05-.35-.29-.32-.47.04-.21.23-.39.49-.34l5.79,1.11Z"/>
    <path class="st0" d="M29.71,22.28c.28.05.41.24.38.48-.03.21-.24.39-.49.35l-5.77-1.1c-.24-.05-.36-.27-.33-.47.04-.22.25-.39.51-.34l5.71,1.09Z"/>
    <path class="st0" d="M30.68,17.39c.27.05.38.27.34.49s-.24.38-.5.33l-5.77-1.1c-.24-.04-.36-.27-.33-.45.03-.23.23-.42.49-.37l5.77,1.1Z"/>
  </g>
  <g>
    <path class="st0" d="M40.76,42.91h-5.03c-.62-.22-1.19-.6-1.62-1.15-1.63-2.06-2.35-4.58-3.78-7-.4-.68-.26-1.52.3-1.99.5-.43,1.43-.6,1.96-.09l1.3,1.25v-6.31c-.01-.91.52-1.63,1.43-1.73.75-.08,1.71.45,1.72,1.35l.03,3.62c.88-.46,1.9-.11,2.29.84.93-.53,1.99-.17,2.4.8.53-.3,1.09-.35,1.62-.06.37.2.84.66.84,1.2v4.49c.01,2.22-1.56,3.86-3.46,4.78Z"/>
    <path class="st0" d="M37.87,29.87l-.03-2.63c-.01-1.28-1.22-2.17-2.41-2.14s-2.31.98-2.33,2.25l-.03,3.32c-1.96-1.45-2.03-4.28-.25-5.86,1.46-1.3,3.58-1.34,5.09-.13,1.63,1.31,1.89,3.63.62,5.26l-.66-.07Z"/>
  </g>
</svg>